<svg width="24" height="24" viewBox="0 0 24 24" fill="none" xmlns="http://www.w3.org/2000/svg">
<circle cx="12" cy="12" r="11" fill="#333333" stroke="white" stroke-width="2"/>
<path d="M17.1629 12.6503C17.5225 12.6503 17.814 12.3588 17.814 11.9992C17.814 11.6396 17.5225 11.348 17.1629 11.348L12.6512 11.348V6.83641C12.6512 6.47681 12.3597 6.1853 12.0001 6.1853C11.6405 6.1853 11.349 6.47681 11.349 6.83641V11.348H6.83738C6.47777 11.348 6.18626 11.6396 6.18626 11.9992C6.18626 12.3588 6.47778 12.6503 6.83738 12.6503H11.349V17.1619C11.349 17.5215 11.6405 17.813 12.0001 17.813C12.3597 17.813 12.6512 17.5215 12.6512 17.1619V12.6503H17.1629Z" fill="#F5F6FF"/>
</svg>
