<svg width="40" height="40" viewBox="0 0 40 40" fill="none" xmlns="http://www.w3.org/2000/svg">
<g clip-path="url(#clip0_21_8293)">
<circle cx="20" cy="20" r="20" fill="#111112"/>
<path d="M15.688 28.608C15.5493 28.5653 15.3947 28.496 15.224 28.4C15.0533 28.3147 14.968 28.1867 14.968 28.016C14.968 27.952 14.984 27.888 15.016 27.824L15.048 27.76C14.888 27.5893 14.7547 27.4027 14.648 27.2C14.5413 27.008 14.488 26.8267 14.488 26.656C14.488 26.5813 14.4933 26.528 14.504 26.496C14.792 26.0693 15.2027 25.6267 15.736 25.168C16.2693 24.7093 16.888 24.272 17.592 23.856C18.3067 23.44 19.0587 23.088 19.848 22.8C20.0187 22.576 20.1733 22.3573 20.312 22.144C20.4507 21.9307 20.5893 21.7227 20.728 21.52C20.7173 21.52 20.7387 21.4827 20.792 21.408C20.8453 21.3227 20.8987 21.2373 20.952 21.152C21.0053 21.0667 21.0267 21.0293 21.016 21.04C21.0053 21.04 20.9627 21.0933 20.888 21.2C20.824 21.296 20.7547 21.392 20.68 21.488C20.616 21.584 20.5787 21.6373 20.568 21.648C20.0133 22.096 19.4107 22.512 18.76 22.896C18.12 23.2693 17.5067 23.536 16.92 23.696C16.6213 23.7707 16.3227 23.824 16.024 23.856C15.7253 23.888 15.4533 23.904 15.208 23.904C15.0053 23.904 14.84 23.8987 14.712 23.888C14.584 23.8667 14.52 23.8507 14.52 23.84C14.52 23.7973 14.7547 23.776 15.224 23.776C14.52 23.6267 14.0187 23.3707 13.72 23.008C13.432 22.6347 13.288 22.2027 13.288 21.712C13.288 21.3067 13.368 20.88 13.528 20.432C13.6987 19.9733 13.9173 19.5307 14.184 19.104C14.7493 18.1973 15.3573 17.472 16.008 16.928C16.6693 16.384 17.4 15.888 18.2 15.44C17.9973 15.536 17.7893 15.6373 17.576 15.744C17.3733 15.84 17.1813 15.9413 17 16.048C16.9253 16.0907 16.8613 16.112 16.808 16.112C16.7653 16.112 16.7813 16.0907 16.856 16.048C17.208 15.8453 17.624 15.632 18.104 15.408C18.584 15.1733 19.0053 14.9707 19.368 14.8C20.2853 14.3627 21.2133 14.0213 22.152 13.776C23.0907 13.5307 23.912 13.408 24.616 13.408C25.032 13.408 25.384 13.456 25.672 13.552C25.8 13.7547 25.8907 13.9413 25.944 14.112C25.9973 14.272 26.024 14.416 26.024 14.544C26.024 14.6507 26.008 14.7413 25.976 14.816C25.9547 14.8907 25.9333 14.9547 25.912 15.008C25.9653 14.976 26.0133 14.9227 26.056 14.848C26.1093 14.7733 26.152 14.6987 26.184 14.624C26.216 14.5493 26.232 14.4853 26.232 14.432C26.2427 14.3787 26.2587 14.3253 26.28 14.272C26.3013 14.24 26.36 14.2613 26.456 14.336C26.552 14.4107 26.6427 14.5067 26.728 14.624C26.824 14.7413 26.8667 14.848 26.856 14.944C26.8453 15.1253 26.7547 15.344 26.584 15.6C26.424 15.856 26.2213 16.1067 25.976 16.352C25.7413 16.5867 25.5013 16.784 25.256 16.944C25.0107 17.0933 24.7973 17.1573 24.616 17.136C24.3493 17.2107 24.1093 17.2747 23.896 17.328C23.6933 17.3707 23.544 17.392 23.448 17.392C23.3627 17.392 23.32 17.3707 23.32 17.328C23.32 17.264 23.4693 17.1253 23.768 16.912C24.216 16.6133 24.6 16.3093 24.92 16C25.3147 15.616 25.512 15.3173 25.512 15.104C25.512 14.9653 25.448 14.864 25.32 14.8C25.2027 14.736 25.0373 14.704 24.824 14.704C24.7813 14.704 24.728 14.7093 24.664 14.72C24.6107 14.72 24.552 14.7253 24.488 14.736C23.8693 14.8213 23.2027 14.96 22.488 15.152C21.784 15.344 21.064 15.6 20.328 15.92C19.592 16.2293 18.8827 16.608 18.2 17.056C17.528 17.4933 16.9147 18.0053 16.36 18.592C15.8053 19.168 15.352 19.8293 15 20.576C14.8613 20.864 14.7547 21.1413 14.68 21.408C14.6053 21.6747 14.568 21.9147 14.568 22.128C14.568 22.4267 14.648 22.6667 14.808 22.848C14.9787 23.0187 15.2507 23.104 15.624 23.104C15.912 23.104 16.264 23.0507 16.68 22.944C17.1067 22.8267 17.608 22.6347 18.184 22.368C18.6107 22.176 19.0427 21.9147 19.48 21.584C19.9173 21.2533 20.328 20.9067 20.712 20.544C21.096 20.1813 21.4267 19.8507 21.704 19.552C21.992 19.2427 22.1893 19.0187 22.296 18.88C22.4133 18.848 22.568 18.8693 22.76 18.944C22.9627 19.0187 23.1387 19.1093 23.288 19.216C23.448 19.3227 23.512 19.408 23.48 19.472C23.48 19.472 23.3947 19.616 23.224 19.904C23.064 20.192 22.8293 20.5813 22.52 21.072C22.2213 21.552 21.864 22.08 21.448 22.656L21.864 22.624H21.912C22.0613 22.624 22.136 22.672 22.136 22.768C22.136 22.8533 22.0667 22.912 21.928 22.944C21.8 22.9867 21.656 23.04 21.496 23.104C21.336 23.1573 21.176 23.2107 21.016 23.264L20.84 23.472L20.92 23.36L20.936 23.328L19.832 24.592C19.672 24.7733 19.4693 24.992 19.224 25.248C18.9787 25.504 18.7173 25.7653 18.44 26.032C18.1733 26.2987 17.9227 26.544 17.688 26.768C17.4533 26.992 17.2667 27.1733 17.128 27.312C16.9893 27.4507 16.9307 27.5147 16.952 27.504C17.5173 27.0773 18.0613 26.5973 18.584 26.064C19.1067 25.5413 19.624 24.96 20.136 24.32C20.2107 24.2133 20.3013 24.1013 20.408 23.984C20.5147 23.8667 20.616 23.7493 20.712 23.632C20.5947 23.8027 20.4453 24.0107 20.264 24.256C20.0827 24.5013 19.8693 24.7733 19.624 25.072C19.4747 25.2533 19.272 25.4667 19.016 25.712C18.76 25.9573 18.488 26.2027 18.2 26.448C17.9227 26.704 17.6667 26.928 17.432 27.12C17.208 27.312 17.048 27.44 16.952 27.504C17.0267 27.504 17.0853 27.52 17.128 27.552C17.1707 27.5733 17.1333 27.6427 17.016 27.76C16.8987 27.8773 16.744 28.0053 16.552 28.144C16.3707 28.2827 16.1947 28.4 16.024 28.496C15.864 28.592 15.752 28.6293 15.688 28.608ZM18.376 15.408C19.0693 15.088 19.8053 14.8 20.584 14.544C21.3733 14.288 22.1307 14.0907 22.856 13.952C23.5813 13.8027 24.1947 13.728 24.696 13.728C24.8453 13.728 24.92 13.7173 24.92 13.696C24.92 13.6747 24.8827 13.6587 24.808 13.648C24.744 13.6267 24.6747 13.6213 24.6 13.632C24.2907 13.6533 23.8693 13.7013 23.336 13.776C22.8133 13.84 22.2373 13.9467 21.608 14.096C20.9787 14.2453 20.3493 14.4587 19.72 14.736C19.5173 14.832 19.2933 14.9387 19.048 15.056C18.8027 15.1733 18.5787 15.2907 18.376 15.408ZM15.704 27.904C15.992 27.616 16.328 27.2587 16.712 26.832C17.096 26.416 17.4853 25.984 17.88 25.536C18.2747 25.088 18.6267 24.688 18.936 24.336C19.0747 24.1867 19.2133 24.032 19.352 23.872C19.5013 23.712 19.6293 23.5467 19.736 23.376C19.544 23.6107 19.416 23.7547 19.352 23.808C19.288 23.8507 19.2507 23.872 19.24 23.872C19.0587 23.9467 18.8133 24.0853 18.504 24.288C18.2053 24.4907 17.8853 24.7307 17.544 25.008C17.2027 25.296 16.8827 25.5947 16.584 25.904C16.2853 26.224 16.04 26.528 15.848 26.816C15.656 27.104 15.56 27.3547 15.56 27.568C15.56 27.696 15.608 27.808 15.704 27.904Z" fill="white"/>
</g>
<defs>
<clipPath id="clip0_21_8293">
<rect width="40" height="40" fill="white"/>
</clipPath>
</defs>
</svg>
