<svg width="64" height="64" viewBox="0 0 64 64" fill="none" xmlns="http://www.w3.org/2000/svg">
<g clip-path="url(#clip0_39_5553)">
<circle cx="32" cy="32" r="32" fill="#111112"/>
<path d="M23.048 49.368C22.736 49.272 22.388 49.116 22.004 48.9C21.62 48.708 21.428 48.42 21.428 48.036C21.428 47.892 21.464 47.748 21.536 47.604L21.608 47.46C21.248 47.076 20.948 46.656 20.708 46.2C20.468 45.768 20.348 45.36 20.348 44.976C20.348 44.808 20.36 44.688 20.384 44.616C21.032 43.656 21.956 42.66 23.156 41.628C24.356 40.596 25.748 39.612 27.332 38.676C28.94 37.74 30.632 36.948 32.408 36.3C32.792 35.796 33.14 35.304 33.452 34.824C33.764 34.344 34.076 33.876 34.388 33.42C34.364 33.42 34.412 33.336 34.532 33.168C34.652 32.976 34.772 32.784 34.892 32.592C35.012 32.4 35.06 32.316 35.036 32.34C35.012 32.34 34.916 32.46 34.748 32.7C34.604 32.916 34.448 33.132 34.28 33.348C34.136 33.564 34.052 33.684 34.028 33.708C32.78 34.716 31.424 35.652 29.96 36.516C28.52 37.356 27.14 37.956 25.82 38.316C25.148 38.484 24.476 38.604 23.804 38.676C23.132 38.748 22.52 38.784 21.968 38.784C21.512 38.784 21.14 38.772 20.852 38.748C20.564 38.7 20.42 38.664 20.42 38.64C20.42 38.544 20.948 38.496 22.004 38.496C20.42 38.16 19.292 37.584 18.62 36.768C17.972 35.928 17.648 34.956 17.648 33.852C17.648 32.94 17.828 31.98 18.188 30.972C18.572 29.94 19.064 28.944 19.664 27.984C20.936 25.944 22.304 24.312 23.768 23.088C25.256 21.864 26.9 20.748 28.7 19.74C28.244 19.956 27.776 20.184 27.296 20.424C26.84 20.64 26.408 20.868 26 21.108C25.832 21.204 25.688 21.252 25.568 21.252C25.472 21.252 25.508 21.204 25.676 21.108C26.468 20.652 27.404 20.172 28.484 19.668C29.564 19.14 30.512 18.684 31.328 18.3C33.392 17.316 35.48 16.548 37.592 15.996C39.704 15.444 41.552 15.168 43.136 15.168C44.072 15.168 44.864 15.276 45.512 15.492C45.8 15.948 46.004 16.368 46.124 16.752C46.244 17.112 46.304 17.436 46.304 17.724C46.304 17.964 46.268 18.168 46.196 18.336C46.148 18.504 46.1 18.648 46.052 18.768C46.172 18.696 46.28 18.576 46.376 18.408C46.496 18.24 46.592 18.072 46.664 17.904C46.736 17.736 46.772 17.592 46.772 17.472C46.796 17.352 46.832 17.232 46.88 17.112C46.928 17.04 47.06 17.088 47.276 17.256C47.492 17.424 47.696 17.64 47.888 17.904C48.104 18.168 48.2 18.408 48.176 18.624C48.152 19.032 47.948 19.524 47.564 20.1C47.204 20.676 46.748 21.24 46.196 21.792C45.668 22.32 45.128 22.764 44.576 23.124C44.024 23.46 43.544 23.604 43.136 23.556C42.536 23.724 41.996 23.868 41.516 23.988C41.06 24.084 40.724 24.132 40.508 24.132C40.316 24.132 40.22 24.084 40.22 23.988C40.22 23.844 40.556 23.532 41.228 23.052C42.236 22.38 43.1 21.696 43.82 21C44.708 20.136 45.152 19.464 45.152 18.984C45.152 18.672 45.008 18.444 44.72 18.3C44.456 18.156 44.084 18.084 43.604 18.084C43.508 18.084 43.388 18.096 43.244 18.12C43.124 18.12 42.992 18.132 42.848 18.156C41.456 18.348 39.956 18.66 38.348 19.092C36.764 19.524 35.144 20.1 33.488 20.82C31.832 21.516 30.236 22.368 28.7 23.376C27.188 24.36 25.808 25.512 24.56 26.832C23.312 28.128 22.292 29.616 21.5 31.296C21.188 31.944 20.948 32.568 20.78 33.168C20.612 33.768 20.528 34.308 20.528 34.788C20.528 35.46 20.708 36 21.068 36.408C21.452 36.792 22.064 36.984 22.904 36.984C23.552 36.984 24.344 36.864 25.28 36.624C26.24 36.36 27.368 35.928 28.664 35.328C29.624 34.896 30.596 34.308 31.58 33.564C32.564 32.82 33.488 32.04 34.352 31.224C35.216 30.408 35.96 29.664 36.584 28.992C37.232 28.296 37.676 27.792 37.916 27.48C38.18 27.408 38.528 27.456 38.96 27.624C39.416 27.792 39.812 27.996 40.148 28.236C40.508 28.476 40.652 28.668 40.58 28.812C40.58 28.812 40.388 29.136 40.004 29.784C39.644 30.432 39.116 31.308 38.42 32.412C37.748 33.492 36.944 34.68 36.008 35.976L36.944 35.904H37.052C37.388 35.904 37.556 36.012 37.556 36.228C37.556 36.42 37.4 36.552 37.088 36.624C36.8 36.72 36.476 36.84 36.116 36.984C35.756 37.104 35.396 37.224 35.036 37.344L34.64 37.812L34.82 37.56L34.856 37.488L32.372 40.332C32.012 40.74 31.556 41.232 31.004 41.808C30.452 42.384 29.864 42.972 29.24 43.572C28.64 44.172 28.076 44.724 27.548 45.228C27.02 45.732 26.6 46.14 26.288 46.452C25.976 46.764 25.844 46.908 25.892 46.884C27.164 45.924 28.388 44.844 29.564 43.644C30.74 42.468 31.904 41.16 33.056 39.72C33.224 39.48 33.428 39.228 33.668 38.964C33.908 38.7 34.136 38.436 34.352 38.172C34.088 38.556 33.752 39.024 33.344 39.576C32.936 40.128 32.456 40.74 31.904 41.412C31.568 41.82 31.112 42.3 30.536 42.852C29.96 43.404 29.348 43.956 28.7 44.508C28.076 45.084 27.5 45.588 26.972 46.02C26.468 46.452 26.108 46.74 25.892 46.884C26.06 46.884 26.192 46.92 26.288 46.992C26.384 47.04 26.3 47.196 26.036 47.46C25.772 47.724 25.424 48.012 24.992 48.324C24.584 48.636 24.188 48.9 23.804 49.116C23.444 49.332 23.192 49.416 23.048 49.368ZM29.096 19.668C30.656 18.948 32.312 18.3 34.064 17.724C35.84 17.148 37.544 16.704 39.176 16.392C40.808 16.056 42.188 15.888 43.316 15.888C43.652 15.888 43.82 15.864 43.82 15.816C43.82 15.768 43.736 15.732 43.568 15.708C43.424 15.66 43.268 15.648 43.1 15.672C42.404 15.72 41.456 15.828 40.256 15.996C39.08 16.14 37.784 16.38 36.368 16.716C34.952 17.052 33.536 17.532 32.12 18.156C31.664 18.372 31.16 18.612 30.608 18.876C30.056 19.14 29.552 19.404 29.096 19.668ZM23.084 47.784C23.732 47.136 24.488 46.332 25.352 45.372C26.216 44.436 27.092 43.464 27.98 42.456C28.868 41.448 29.66 40.548 30.356 39.756C30.668 39.42 30.98 39.072 31.292 38.712C31.628 38.352 31.916 37.98 32.156 37.596C31.724 38.124 31.436 38.448 31.292 38.568C31.148 38.664 31.064 38.712 31.04 38.712C30.632 38.88 30.08 39.192 29.384 39.648C28.712 40.104 27.992 40.644 27.224 41.268C26.456 41.916 25.736 42.588 25.064 43.284C24.392 44.004 23.84 44.688 23.408 45.336C22.976 45.984 22.76 46.548 22.76 47.028C22.76 47.316 22.868 47.568 23.084 47.784Z" fill="white"/>
</g>
<defs>
<clipPath id="clip0_39_5553">
<rect width="64" height="64" fill="white"/>
</clipPath>
</defs>
</svg>
